<svg id="Capa_1" enable-background="new 0 0 512 512" height="512" viewBox="0 0 512 512" width="512" xmlns="http://www.w3.org/2000/svg"><g><path d="m497 26h-482c-8.284 0-15 6.716-15 15v340c0 8.284 6.716 15 15 15h181v60h-15c-8.284 0-15 6.716-15 15s6.716 15 15 15h150c8.284 0 15-6.716 15-15s-6.716-15-15-15h-15v-60h181c8.284 0 15-6.716 15-15v-340c0-8.284-6.716-15-15-15zm-15 30v240h-452v-240zm-196 400h-60v-60h60zm-256-90v-40h452v40z"/><path d="m223.381 258.012c1.818.724 3.694 1.066 5.539 1.066 5.964 0 11.604-3.581 13.942-9.46l54.15-136.147c3.062-7.697-.697-16.42-8.395-19.481-7.698-3.063-16.42.697-19.481 8.395l-54.15 136.148c-3.061 7.696.698 16.417 8.395 19.479z"/><path d="m335.557 250.526c2.367 1.372 4.953 2.023 7.504 2.023 5.177 0 10.213-2.683 12.994-7.484l36.363-62.777c2.741-4.732 2.69-10.58-.133-15.263l-36.363-60.315c-4.277-7.095-13.495-9.378-20.591-5.102-7.095 4.277-9.379 13.496-5.102 20.591l31.786 52.724-31.919 55.106c-4.153 7.167-1.708 16.345 5.461 20.497z"/><path d="m155.945 245.065c2.782 4.802 7.817 7.484 12.994 7.484 2.551 0 5.138-.651 7.504-2.023 7.168-4.152 9.613-13.33 5.461-20.498l-31.919-55.106 31.786-52.724c4.277-7.095 1.993-16.313-5.102-20.591-7.096-4.278-16.314-1.993-20.591 5.102l-36.363 60.315c-2.823 4.683-2.874 10.531-.133 15.263z"/></g></svg>